<mxfile host="Electron" modified="2024-03-24T08:02:50.617Z" agent="Mozilla/5.0 (Macintosh; Intel Mac OS X 10_15_7) AppleWebKit/537.36 (KHTML, like Gecko) draw.io/24.0.4 Chrome/120.0.6099.109 Electron/28.1.0 Safari/537.36" etag="Mtb1jhaSJ9LyRulK-716" version="24.0.4" type="device">
  <diagram name="Page-1" id="Kh0S4Mzz8ug1oeH6Zn8T">
    <mxGraphModel dx="1392" dy="974" grid="1" gridSize="10" guides="1" tooltips="1" connect="1" arrows="1" fold="1" page="1" pageScale="1" pageWidth="1169" pageHeight="827" math="0" shadow="0">
      <root>
        <mxCell id="0" />
        <mxCell id="1" parent="0" />
        <mxCell id="9NrqEdqA8gilFSspLG47-57" value="" style="rounded=0;whiteSpace=wrap;html=1;fillColor=#eeeeee;strokeColor=#36393d;opacity=40;" parent="1" vertex="1">
          <mxGeometry x="190" y="9" width="780" height="801" as="geometry" />
        </mxCell>
        <mxCell id="9NrqEdqA8gilFSspLG47-1" value="&lt;span&gt;&lt;b&gt;api&lt;/b&gt;&lt;/span&gt;" style="rounded=0;whiteSpace=wrap;html=1;verticalAlign=top;fontFamily=Courier New;fontStyle=0" parent="1" vertex="1">
          <mxGeometry x="200" y="19" width="200" height="371" as="geometry" />
        </mxCell>
        <mxCell id="9NrqEdqA8gilFSspLG47-10" value="" style="rounded=0;whiteSpace=wrap;html=1;shadow=1;textShadow=1;fillColor=#f9f7ed;strokeColor=#36393d;sketch=1;curveFitting=1;jiggle=2;glass=0;" parent="1" vertex="1">
          <mxGeometry x="220" y="49" width="160" height="190" as="geometry" />
        </mxCell>
        <mxCell id="9NrqEdqA8gilFSspLG47-12" value="API hander functions which call a&amp;nbsp;&lt;b&gt;core&lt;/b&gt; function and return &lt;b&gt;string&lt;/b&gt; representations&lt;br&gt;of the result&amp;nbsp;" style="shape=note;strokeWidth=1;fontSize=14;size=20;whiteSpace=wrap;html=1;fillColor=#ffff88;strokeColor=#36393d;sketch=1;curveFitting=1;jiggle=2;" parent="1" vertex="1">
          <mxGeometry x="220" y="259" width="160" height="120" as="geometry" />
        </mxCell>
        <mxCell id="9NrqEdqA8gilFSspLG47-27" value="&lt;font face=&quot;Courier New&quot;&gt;&lt;b style=&quot;font-size: 10px;&quot;&gt;readNodeHandler&lt;/b&gt;&lt;/font&gt;" style="rounded=0;whiteSpace=wrap;html=1;shadow=1;textShadow=1;" parent="1" vertex="1">
          <mxGeometry x="240" y="69" width="120" height="40" as="geometry" />
        </mxCell>
        <mxCell id="9NrqEdqA8gilFSspLG47-28" value="&lt;font face=&quot;Courier New&quot;&gt;&lt;b style=&quot;font-size: 10px;&quot;&gt;selectNodeHandler&lt;/b&gt;&lt;/font&gt;" style="rounded=0;whiteSpace=wrap;html=1;shadow=1;textShadow=1;" parent="1" vertex="1">
          <mxGeometry x="240" y="119" width="120" height="40" as="geometry" />
        </mxCell>
        <mxCell id="9NrqEdqA8gilFSspLG47-29" value="&lt;font face=&quot;Courier New&quot;&gt;&lt;span style=&quot;font-size: 10px;&quot;&gt;&lt;b&gt;...Handler&lt;/b&gt;&lt;/span&gt;&lt;/font&gt;" style="rounded=0;whiteSpace=wrap;html=1;shadow=1;textShadow=1;" parent="1" vertex="1">
          <mxGeometry x="240" y="169" width="120" height="40" as="geometry" />
        </mxCell>
        <mxCell id="9NrqEdqA8gilFSspLG47-51" value="local database" style="shape=cylinder3;whiteSpace=wrap;html=1;boundedLbl=1;backgroundOutline=1;size=15;fillColor=#f5f5f5;strokeColor=#666666;gradientColor=#b3b3b3;labelPosition=center;verticalLabelPosition=bottom;align=center;verticalAlign=top;" parent="1" vertex="1">
          <mxGeometry x="1070" y="49" width="60" height="80" as="geometry" />
        </mxCell>
        <mxCell id="9NrqEdqA8gilFSspLG47-3" value="&lt;span&gt;cmd&lt;/span&gt;" style="rounded=0;whiteSpace=wrap;html=1;verticalAlign=top;fontFamily=Courier New;fontStyle=1" parent="1" vertex="1">
          <mxGeometry x="200" y="420" width="200" height="380" as="geometry" />
        </mxCell>
        <mxCell id="9NrqEdqA8gilFSspLG47-11" value="" style="rounded=0;whiteSpace=wrap;html=1;shadow=1;textShadow=1;fillColor=#f9f7ed;strokeColor=#36393d;sketch=1;curveFitting=1;jiggle=2;glass=0;" parent="1" vertex="1">
          <mxGeometry x="220" y="450" width="160" height="190" as="geometry" />
        </mxCell>
        <mxCell id="9NrqEdqA8gilFSspLG47-40" value="CLI functions which call a&amp;nbsp;&lt;b&gt;core&lt;/b&gt; function and output the result on screen or to file" style="shape=note;strokeWidth=1;fontSize=14;size=20;whiteSpace=wrap;html=1;fillColor=#ffff88;strokeColor=#36393d;sketch=1;curveFitting=1;jiggle=2;" parent="1" vertex="1">
          <mxGeometry x="220" y="661" width="160" height="120" as="geometry" />
        </mxCell>
        <mxCell id="9NrqEdqA8gilFSspLG47-41" value="&lt;font face=&quot;Courier New&quot;&gt;&lt;span style=&quot;font-size: 10px;&quot;&gt;&lt;b&gt;readNode&lt;/b&gt;&lt;/span&gt;&lt;/font&gt;" style="rounded=0;whiteSpace=wrap;html=1;shadow=1;textShadow=1;" parent="1" vertex="1">
          <mxGeometry x="240" y="470" width="120" height="40" as="geometry" />
        </mxCell>
        <mxCell id="9NrqEdqA8gilFSspLG47-60" style="edgeStyle=orthogonalEdgeStyle;rounded=0;orthogonalLoop=1;jettySize=auto;html=1;strokeWidth=2;" parent="1" source="9NrqEdqA8gilFSspLG47-67" target="9NrqEdqA8gilFSspLG47-27" edge="1">
          <mxGeometry relative="1" as="geometry">
            <Array as="points">
              <mxPoint x="45" y="89" />
            </Array>
          </mxGeometry>
        </mxCell>
        <mxCell id="9NrqEdqA8gilFSspLG47-61" value="&lt;b&gt;http://localhost:8080/node&lt;/b&gt;" style="edgeLabel;html=1;align=center;verticalAlign=middle;resizable=0;points=[];" parent="9NrqEdqA8gilFSspLG47-60" vertex="1" connectable="0">
          <mxGeometry x="-0.4768" y="5" relative="1" as="geometry">
            <mxPoint x="47" y="-15" as="offset" />
          </mxGeometry>
        </mxCell>
        <mxCell id="9NrqEdqA8gilFSspLG47-63" style="edgeStyle=orthogonalEdgeStyle;rounded=0;orthogonalLoop=1;jettySize=auto;html=1;strokeWidth=2;" parent="1" source="9NrqEdqA8gilFSspLG47-62" target="9NrqEdqA8gilFSspLG47-41" edge="1">
          <mxGeometry relative="1" as="geometry">
            <Array as="points">
              <mxPoint x="59" y="490" />
            </Array>
          </mxGeometry>
        </mxCell>
        <mxCell id="9NrqEdqA8gilFSspLG47-62" value="CLI interface" style="sketch=0;points=[[0,0,0],[0.25,0,0],[0.5,0,0],[0.75,0,0],[1,0,0],[0,1,0],[0.25,1,0],[0.5,1,0],[0.75,1,0],[1,1,0],[0,0.25,0],[0,0.5,0],[0,0.75,0],[1,0.25,0],[1,0.5,0],[1,0.75,0]];outlineConnect=0;fontColor=#232F3E;fillColor=#C925D1;strokeColor=#ffffff;dashed=0;verticalLabelPosition=bottom;verticalAlign=top;align=center;html=1;fontSize=12;fontStyle=0;aspect=fixed;shape=mxgraph.aws4.resourceIcon;resIcon=mxgraph.aws4.command_line_interface;" parent="1" vertex="1">
          <mxGeometry x="20" y="532" width="78" height="78" as="geometry" />
        </mxCell>
        <mxCell id="9NrqEdqA8gilFSspLG47-67" value="API interface" style="image;aspect=fixed;html=1;points=[];align=center;fontSize=12;image=img/lib/azure2/general/Browser.svg;" parent="1" vertex="1">
          <mxGeometry x="20" y="119" width="65" height="52" as="geometry" />
        </mxCell>
        <mxCell id="G56Pn7edzlzQans5iVEa-1" value="" style="group" vertex="1" connectable="0" parent="1">
          <mxGeometry x="760" y="159" width="200" height="380" as="geometry" />
        </mxCell>
        <mxCell id="9NrqEdqA8gilFSspLG47-45" value="&lt;span&gt;data&lt;/span&gt;" style="rounded=0;whiteSpace=wrap;html=1;verticalAlign=top;fontStyle=1;fontFamily=Courier New;fillColor=default;" parent="G56Pn7edzlzQans5iVEa-1" vertex="1">
          <mxGeometry width="200" height="380" as="geometry" />
        </mxCell>
        <mxCell id="9NrqEdqA8gilFSspLG47-14" value="&lt;b&gt;struct&lt;/b&gt;&amp;nbsp;definitions&lt;br&gt;for data that is&lt;br&gt;processed by&amp;nbsp;&lt;b&gt;db&lt;/b&gt;&amp;nbsp;functions" style="shape=note;strokeWidth=2;fontSize=14;size=20;whiteSpace=wrap;html=1;fillColor=#ffff88;strokeColor=#36393d;sketch=1;curveFitting=1;jiggle=2;shadow=0;textShadow=0;" parent="G56Pn7edzlzQans5iVEa-1" vertex="1">
          <mxGeometry x="20" y="270" width="160" height="100" as="geometry" />
        </mxCell>
        <mxCell id="9NrqEdqA8gilFSspLG47-15" value="" style="rounded=0;whiteSpace=wrap;html=1;shadow=1;textShadow=1;fillColor=#f9f7ed;strokeColor=#36393d;sketch=1;curveFitting=1;jiggle=2;glass=0;" parent="G56Pn7edzlzQans5iVEa-1" vertex="1">
          <mxGeometry x="20" y="31" width="160" height="219" as="geometry" />
        </mxCell>
        <mxCell id="9NrqEdqA8gilFSspLG47-16" value="NodeClass" style="rounded=0;whiteSpace=wrap;html=1;shadow=1;textShadow=1;fontFamily=Courier New;fontStyle=1;fontSize=10;" parent="G56Pn7edzlzQans5iVEa-1" vertex="1">
          <mxGeometry x="40" y="70" width="120" height="20" as="geometry" />
        </mxCell>
        <mxCell id="9NrqEdqA8gilFSspLG47-17" value="NodeClassAttribute" style="rounded=0;whiteSpace=wrap;html=1;shadow=1;textShadow=1;fontFamily=Courier New;fontStyle=1;fontSize=10;" parent="G56Pn7edzlzQans5iVEa-1" vertex="1">
          <mxGeometry x="40" y="100" width="120" height="20" as="geometry" />
        </mxCell>
        <mxCell id="9NrqEdqA8gilFSspLG47-18" value="NodeClassEdge" style="rounded=0;whiteSpace=wrap;html=1;shadow=1;textShadow=1;fontFamily=Courier New;fontStyle=1;fontSize=10;" parent="G56Pn7edzlzQans5iVEa-1" vertex="1">
          <mxGeometry x="40" y="130" width="120" height="20" as="geometry" />
        </mxCell>
        <mxCell id="9NrqEdqA8gilFSspLG47-19" value="&lt;font style=&quot;font-size: 10px;&quot; face=&quot;Courier New&quot;&gt;&lt;b style=&quot;font-size: 10px;&quot;&gt;Namespace&lt;/b&gt;&lt;/font&gt;" style="rounded=0;whiteSpace=wrap;html=1;shadow=1;textShadow=1;fontSize=10;" parent="G56Pn7edzlzQans5iVEa-1" vertex="1">
          <mxGeometry x="40" y="40" width="120" height="19" as="geometry" />
        </mxCell>
        <mxCell id="9NrqEdqA8gilFSspLG47-20" value="Node" style="rounded=0;whiteSpace=wrap;html=1;shadow=1;textShadow=1;fontFamily=Courier New;fontStyle=1;fontSize=10;" parent="G56Pn7edzlzQans5iVEa-1" vertex="1">
          <mxGeometry x="40" y="160" width="120" height="19" as="geometry" />
        </mxCell>
        <mxCell id="9NrqEdqA8gilFSspLG47-21" value="NodeAttribute" style="rounded=0;whiteSpace=wrap;html=1;shadow=1;textShadow=1;fontFamily=Courier New;fontStyle=1;fontSize=10;" parent="G56Pn7edzlzQans5iVEa-1" vertex="1">
          <mxGeometry x="40" y="190" width="120" height="19" as="geometry" />
        </mxCell>
        <mxCell id="9NrqEdqA8gilFSspLG47-22" value="NodeEdge" style="rounded=0;whiteSpace=wrap;html=1;shadow=1;textShadow=1;fontFamily=Courier New;fontStyle=1;fontSize=10;" parent="G56Pn7edzlzQans5iVEa-1" vertex="1">
          <mxGeometry x="40" y="220" width="120" height="19" as="geometry" />
        </mxCell>
        <mxCell id="9NrqEdqA8gilFSspLG47-4" value="&lt;span&gt;definition&lt;/span&gt;" style="rounded=0;whiteSpace=wrap;html=1;verticalAlign=top;fontStyle=1;fontFamily=Courier New;" parent="1" vertex="1">
          <mxGeometry x="480" y="420" width="200" height="380" as="geometry" />
        </mxCell>
        <mxCell id="9NrqEdqA8gilFSspLG47-23" value="functions which load&lt;br&gt;definitions from and&lt;br&gt;store definitions upon&lt;br&gt;the local file system" style="shape=note;strokeWidth=1;fontSize=14;size=20;whiteSpace=wrap;html=1;fillColor=#ffff88;strokeColor=#36393d;sketch=1;curveFitting=1;jiggle=2;shadow=0;textShadow=0;" parent="1" vertex="1">
          <mxGeometry x="500" y="660" width="160" height="120" as="geometry" />
        </mxCell>
        <mxCell id="9NrqEdqA8gilFSspLG47-31" value="" style="rounded=0;whiteSpace=wrap;html=1;shadow=1;textShadow=1;fillColor=#f9f7ed;strokeColor=#36393d;sketch=1;curveFitting=1;jiggle=2;glass=0;" parent="1" vertex="1">
          <mxGeometry x="500" y="450" width="160" height="191" as="geometry" />
        </mxCell>
        <mxCell id="9NrqEdqA8gilFSspLG47-32" value="&lt;font face=&quot;Courier New&quot;&gt;&lt;span style=&quot;font-size: 10px;&quot;&gt;&lt;b&gt;LoadDefinitions&lt;/b&gt;&lt;/span&gt;&lt;/font&gt;" style="rounded=0;whiteSpace=wrap;html=1;shadow=1;textShadow=1;" parent="1" vertex="1">
          <mxGeometry x="520" y="470" width="120" height="40" as="geometry" />
        </mxCell>
        <mxCell id="9NrqEdqA8gilFSspLG47-33" value="&lt;font face=&quot;Courier New&quot;&gt;&lt;b style=&quot;font-size: 10px;&quot;&gt;SaveDefinitions&lt;/b&gt;&lt;/font&gt;" style="rounded=0;whiteSpace=wrap;html=1;shadow=1;textShadow=1;" parent="1" vertex="1">
          <mxGeometry x="520" y="520" width="120" height="40" as="geometry" />
        </mxCell>
        <mxCell id="9NrqEdqA8gilFSspLG47-34" value="&lt;font face=&quot;Courier New&quot;&gt;&lt;span style=&quot;font-size: 10px;&quot;&gt;&lt;b&gt;...&lt;/b&gt;&lt;/span&gt;&lt;/font&gt;" style="rounded=0;whiteSpace=wrap;html=1;shadow=1;textShadow=1;" parent="1" vertex="1">
          <mxGeometry x="520" y="570" width="120" height="40" as="geometry" />
        </mxCell>
        <mxCell id="9NrqEdqA8gilFSspLG47-6" value="&lt;span&gt;db&lt;/span&gt;" style="rounded=0;whiteSpace=wrap;html=1;verticalAlign=top;fontStyle=1;fontFamily=Courier New;" parent="1" vertex="1">
          <mxGeometry x="480" y="19" width="200" height="371" as="geometry" />
        </mxCell>
        <mxCell id="G56Pn7edzlzQans5iVEa-6" style="edgeStyle=orthogonalEdgeStyle;rounded=0;orthogonalLoop=1;jettySize=auto;html=1;dashed=1;startArrow=classic;startFill=1;" edge="1" parent="1" source="9NrqEdqA8gilFSspLG47-36" target="9NrqEdqA8gilFSspLG47-15">
          <mxGeometry relative="1" as="geometry" />
        </mxCell>
        <mxCell id="9NrqEdqA8gilFSspLG47-36" value="" style="rounded=0;whiteSpace=wrap;html=1;shadow=1;textShadow=1;fillColor=#f9f7ed;strokeColor=#36393d;sketch=1;curveFitting=1;jiggle=2;glass=0;" parent="1" vertex="1">
          <mxGeometry x="500" y="49" width="160" height="190" as="geometry" />
        </mxCell>
        <mxCell id="9NrqEdqA8gilFSspLG47-37" value="&lt;font face=&quot;Courier New&quot;&gt;&lt;span style=&quot;font-size: 10px;&quot;&gt;&lt;b&gt;ReadNodeByID&lt;/b&gt;&lt;/span&gt;&lt;/font&gt;" style="rounded=0;whiteSpace=wrap;html=1;shadow=1;textShadow=1;" parent="1" vertex="1">
          <mxGeometry x="520" y="69" width="120" height="40" as="geometry" />
        </mxCell>
        <mxCell id="9NrqEdqA8gilFSspLG47-38" value="&lt;font face=&quot;Courier New&quot;&gt;&lt;b style=&quot;font-size: 10px;&quot;&gt;selectNode&lt;/b&gt;&lt;/font&gt;" style="rounded=0;whiteSpace=wrap;html=1;shadow=1;textShadow=1;" parent="1" vertex="1">
          <mxGeometry x="520" y="119" width="120" height="40" as="geometry" />
        </mxCell>
        <mxCell id="9NrqEdqA8gilFSspLG47-39" value="&lt;font face=&quot;Courier New&quot;&gt;&lt;span style=&quot;font-size: 10px;&quot;&gt;&lt;b&gt;...&lt;/b&gt;&lt;/span&gt;&lt;/font&gt;" style="rounded=0;whiteSpace=wrap;html=1;shadow=1;textShadow=1;" parent="1" vertex="1">
          <mxGeometry x="520" y="169" width="120" height="40" as="geometry" />
        </mxCell>
        <mxCell id="9NrqEdqA8gilFSspLG47-47" value="functions which&lt;br&gt;run SQL queries to read and write to the database, returning&lt;br&gt;&lt;b&gt;data&amp;nbsp;&lt;/b&gt;representations&lt;br&gt;of the any results&amp;nbsp;" style="shape=note;strokeWidth=1;fontSize=14;size=20;whiteSpace=wrap;html=1;fillColor=#ffff88;strokeColor=#36393d;sketch=1;curveFitting=1;jiggle=2;" parent="1" vertex="1">
          <mxGeometry x="500" y="259" width="160" height="120" as="geometry" />
        </mxCell>
        <mxCell id="9NrqEdqA8gilFSspLG47-52" style="edgeStyle=orthogonalEdgeStyle;rounded=0;orthogonalLoop=1;jettySize=auto;html=1;strokeWidth=2;" parent="1" source="9NrqEdqA8gilFSspLG47-37" target="9NrqEdqA8gilFSspLG47-51" edge="1">
          <mxGeometry relative="1" as="geometry" />
        </mxCell>
        <mxCell id="9NrqEdqA8gilFSspLG47-53" value="SQL queries" style="edgeLabel;html=1;align=center;verticalAlign=middle;resizable=0;points=[];" parent="9NrqEdqA8gilFSspLG47-52" vertex="1" connectable="0">
          <mxGeometry x="0.452" y="4" relative="1" as="geometry">
            <mxPoint x="-72" y="-15" as="offset" />
          </mxGeometry>
        </mxCell>
        <mxCell id="G56Pn7edzlzQans5iVEa-4" style="edgeStyle=orthogonalEdgeStyle;rounded=0;orthogonalLoop=1;jettySize=auto;html=1;strokeWidth=2;" edge="1" parent="1" source="9NrqEdqA8gilFSspLG47-27" target="9NrqEdqA8gilFSspLG47-37">
          <mxGeometry relative="1" as="geometry" />
        </mxCell>
        <mxCell id="G56Pn7edzlzQans5iVEa-5" style="edgeStyle=orthogonalEdgeStyle;rounded=0;orthogonalLoop=1;jettySize=auto;html=1;strokeWidth=2;" edge="1" parent="1" source="9NrqEdqA8gilFSspLG47-41" target="9NrqEdqA8gilFSspLG47-37">
          <mxGeometry relative="1" as="geometry">
            <Array as="points">
              <mxPoint x="440" y="490" />
              <mxPoint x="440" y="89" />
            </Array>
          </mxGeometry>
        </mxCell>
        <mxCell id="G56Pn7edzlzQans5iVEa-7" value="local file system" style="image;aspect=fixed;html=1;points=[];align=center;fontSize=12;image=img/lib/azure2/general/Files.svg;" vertex="1" parent="1">
          <mxGeometry x="1068" y="610" width="64" height="70" as="geometry" />
        </mxCell>
        <mxCell id="G56Pn7edzlzQans5iVEa-8" style="edgeStyle=orthogonalEdgeStyle;rounded=0;orthogonalLoop=1;jettySize=auto;html=1;strokeWidth=2;" edge="1" parent="1" source="9NrqEdqA8gilFSspLG47-31" target="G56Pn7edzlzQans5iVEa-7">
          <mxGeometry relative="1" as="geometry">
            <mxPoint x="1040" y="640" as="targetPoint" />
            <Array as="points">
              <mxPoint x="720" y="546" />
              <mxPoint x="720" y="650" />
            </Array>
          </mxGeometry>
        </mxCell>
      </root>
    </mxGraphModel>
  </diagram>
</mxfile>
